<?xml version="1.0" encoding="UTF-8"?>
<svg version="1.1" xmlns="http://www.w3.org/2000/svg" width="308" height="243">
<path d="M0 0 C5.10248088 0.75070983 7.3692355 3.81862915 10.7734375 7.5 C11.41410156 8.16773438 12.05476563 8.83546875 12.71484375 9.5234375 C14.29043942 11.16958223 15.85034469 12.82803435 17.3984375 14.5 C22.06357791 10.6067775 26.27558549 6.59218388 30.30859375 2.0390625 C32.3984375 0.5 32.3984375 0.5 35.18359375 -0.1640625 C40.07203161 0.84569988 42.4637067 3.92079217 45.7734375 7.5 C46.41410156 8.16773438 47.05476563 8.83546875 47.71484375 9.5234375 C49.29043942 11.16958223 50.85034469 12.82803435 52.3984375 14.5 C57.06357791 10.6067775 61.27558549 6.59218388 65.30859375 2.0390625 C67.3984375 0.5 67.3984375 0.5 70.26171875 -0.09765625 C74.72314251 0.75240332 76.58415774 3.12611193 79.5234375 6.4375 C83.61773309 11.40412096 83.61773309 11.40412096 89.3984375 13.5 C91.04621326 12.44484848 91.04621326 12.44484848 92.421875 10.75390625 C92.9684375 10.16416016 93.515 9.57441406 94.078125 8.96679688 C95.20294119 7.70332247 96.3253645 6.43771347 97.4453125 5.16992188 C101.65316621 0.64104646 101.65316621 0.64104646 105.59765625 -0.10546875 C108.74594222 0.57512306 109.75195842 1.22400664 111.8359375 3.625 C115.14168239 7.24803736 118.63701662 10.35268865 122.3984375 13.5 C125.36678282 12.17645209 127.32476606 10.75785334 129.5234375 8.375 C131.03125 6.7421875 131.03125 6.7421875 132.3984375 5.5 C133.0584375 5.5 133.7184375 5.5 134.3984375 5.5 C134.5840625 4.860625 134.7696875 4.22125 134.9609375 3.5625 C136.3984375 1.5 136.3984375 1.5 139.5234375 0.4375 C143.76425328 0.50590025 144.21117371 0.74384206 147.14453125 3.46484375 C148.39597479 4.76925845 149.62604505 6.09445536 150.8359375 7.4375 C151.47208984 8.10974609 152.10824219 8.78199219 152.76367188 9.47460938 C154.3281449 11.13318605 155.87098871 12.80738727 157.3984375 14.5 C161.32851001 11.22021731 165.02592802 7.93195318 168.4609375 4.125 C171.94029138 0.58484187 171.94029138 0.58484187 175.7734375 -0.125 C178.3984375 0.5 178.3984375 0.5 180.3984375 2.5 C180.64453316 4.49524117 180.64453316 4.49524117 180.63894653 6.99246216 C180.64307053 8.41016403 180.64307053 8.41016403 180.64727783 9.85650635 C180.636492 11.41664459 180.636492 11.41664459 180.62548828 13.00830078 C180.62578033 14.10099274 180.62607239 15.19368469 180.62637329 16.31948853 C180.62497575 19.94484292 180.60939449 23.56999385 180.59375 27.1953125 C180.59002138 29.70352059 180.5871737 32.21173012 180.58517456 34.71994019 C180.57830869 40.65562286 180.56253278 46.59123984 180.54247558 52.52688873 C180.51794763 59.94629818 180.5071901 67.36571665 180.49609375 74.78515625 C180.47462265 88.02347486 180.44085489 101.26173279 180.3984375 114.5 C181.64641113 114.63792969 182.89438477 114.77585937 184.18017578 114.91796875 C196.23451718 116.25024974 206.94982486 124.92807031 214.42578125 133.9453125 C222.07391135 144.26139496 224.58467835 154.03256847 224.6484375 166.625 C224.679375 168.11773437 224.679375 168.11773437 224.7109375 169.640625 C224.78419326 183.66910217 219.23763588 196.42082117 209.3984375 206.5 C197.72408625 216.85893139 183.08450427 222.19072178 167.546875 221.7109375 C151.6597046 220.64653651 139.16378909 214.19524907 128.3984375 202.5 C124.59104411 197.81976543 121.71644906 193.70122535 121.3984375 187.5 C120.90214844 187.93570313 120.40585938 188.37140625 119.89453125 188.8203125 C115.42024731 192.74273979 110.92279708 196.63544286 106.3984375 200.5 C100.68168543 198.8470901 97.62565596 194.8480559 93.77148438 190.58007812 C92.08990536 188.74553623 92.08990536 188.74553623 89.3984375 186.5 C84.78292228 186.91231109 82.38566795 190.2909455 79.3984375 193.5 C73.37449925 199.97126039 73.37449925 199.97126039 69.3984375 200.5 C67.50390625 199.3125 67.50390625 199.3125 65.5859375 197.5 C64.54759766 196.5409375 64.54759766 196.5409375 63.48828125 195.5625 C60.91316981 193.02108161 58.44127497 190.39290434 56.0390625 187.6875 C54.47106239 186.26555606 54.47106239 186.26555606 52.47558594 186.7578125 C49.01496125 187.99433096 46.85040136 190.86595962 44.3984375 193.5 C38.37449925 199.97126039 38.37449925 199.97126039 34.3984375 200.5 C32.50390625 199.3125 32.50390625 199.3125 30.5859375 197.5 C29.89371094 196.860625 29.20148438 196.22125 28.48828125 195.5625 C25.91316981 193.02108161 23.44127497 190.39290434 21.0390625 187.6875 C19.45898396 186.2750332 19.45898396 186.2750332 17.359375 186.65234375 C14.41573174 187.92479512 12.61413017 190.22599963 10.3984375 192.5 C9.7384375 192.5 9.0784375 192.5 8.3984375 192.5 C8.3984375 193.16 8.3984375 193.82 8.3984375 194.5 C7.7384375 194.5 7.0784375 194.5 6.3984375 194.5 C6.0684375 195.49 5.7384375 196.48 5.3984375 197.5 C3.6484375 199.3125 3.6484375 199.3125 1.3984375 200.5 C-1.2421875 199.57421875 -1.2421875 199.57421875 -3.6015625 198.5 C-3.62488835 172.83166256 -3.64254013 147.1633267 -3.65337467 121.49498081 C-3.6585383 109.57762359 -3.66558226 97.66027293 -3.67700195 85.74291992 C-3.68694676 75.35980679 -3.69341544 64.97669842 -3.69565099 54.59358066 C-3.69695845 49.09215674 -3.70004648 43.59074643 -3.70729256 38.08932686 C-3.71404957 32.91761015 -3.71618012 27.74591275 -3.71467018 22.57419205 C-3.71494665 20.67018085 -3.71695366 18.76616904 -3.72076797 16.86216164 C-3.72570026 14.27446234 -3.72456252 11.68683715 -3.72181702 9.09913635 C-3.72472986 8.33553238 -3.7276427 7.57192841 -3.73064381 6.78518492 C-3.71307854 0.7136247 -3.71307854 0.7136247 0 0 Z " fill="#748AD4" transform="translate(43.6015625,13.5)"/>
<path d="M0 0 C5.10248088 0.75070983 7.3692355 3.81862915 10.7734375 7.5 C11.41410156 8.16773438 12.05476563 8.83546875 12.71484375 9.5234375 C14.29043942 11.16958223 15.85034469 12.82803435 17.3984375 14.5 C22.06357791 10.6067775 26.27558549 6.59218388 30.30859375 2.0390625 C32.3984375 0.5 32.3984375 0.5 35.18359375 -0.1640625 C40.07203161 0.84569988 42.4637067 3.92079217 45.7734375 7.5 C46.41410156 8.16773438 47.05476563 8.83546875 47.71484375 9.5234375 C49.29043942 11.16958223 50.85034469 12.82803435 52.3984375 14.5 C57.06357791 10.6067775 61.27558549 6.59218388 65.30859375 2.0390625 C67.3984375 0.5 67.3984375 0.5 70.26171875 -0.09765625 C74.72314251 0.75240332 76.58415774 3.12611193 79.5234375 6.4375 C83.61773309 11.40412096 83.61773309 11.40412096 89.3984375 13.5 C91.04621326 12.44484848 91.04621326 12.44484848 92.421875 10.75390625 C92.9684375 10.16416016 93.515 9.57441406 94.078125 8.96679688 C95.20294119 7.70332247 96.3253645 6.43771347 97.4453125 5.16992188 C101.65316621 0.64104646 101.65316621 0.64104646 105.59765625 -0.10546875 C108.74594222 0.57512306 109.75195842 1.22400664 111.8359375 3.625 C115.14168239 7.24803736 118.63701662 10.35268865 122.3984375 13.5 C125.36678282 12.17645209 127.32476606 10.75785334 129.5234375 8.375 C131.03125 6.7421875 131.03125 6.7421875 132.3984375 5.5 C133.0584375 5.5 133.7184375 5.5 134.3984375 5.5 C134.5840625 4.860625 134.7696875 4.22125 134.9609375 3.5625 C136.3984375 1.5 136.3984375 1.5 139.5234375 0.4375 C143.76425328 0.50590025 144.21117371 0.74384206 147.14453125 3.46484375 C148.39597479 4.76925845 149.62604505 6.09445536 150.8359375 7.4375 C151.47208984 8.10974609 152.10824219 8.78199219 152.76367188 9.47460938 C154.3281449 11.13318605 155.87098871 12.80738727 157.3984375 14.5 C161.32851001 11.22021731 165.02592802 7.93195318 168.4609375 4.125 C171.94029138 0.58484187 171.94029138 0.58484187 175.7734375 -0.125 C178.3984375 0.5 178.3984375 0.5 180.3984375 2.5 C180.64453316 4.49524117 180.64453316 4.49524117 180.63894653 6.99246216 C180.64307053 8.41016403 180.64307053 8.41016403 180.64727783 9.85650635 C180.636492 11.41664459 180.636492 11.41664459 180.62548828 13.00830078 C180.62578033 14.10099274 180.62607239 15.19368469 180.62637329 16.31948853 C180.62497575 19.94484292 180.60939449 23.56999385 180.59375 27.1953125 C180.59002138 29.70352059 180.5871737 32.21173012 180.58517456 34.71994019 C180.57830869 40.65562286 180.56253278 46.59123984 180.54247558 52.52688873 C180.51794763 59.94629818 180.5071901 67.36571665 180.49609375 74.78515625 C180.47462265 88.02347486 180.44085489 101.26173279 180.3984375 114.5 C181.64641113 114.63792969 182.89438477 114.77585937 184.18017578 114.91796875 C196.23451718 116.25024974 206.94982486 124.92807031 214.42578125 133.9453125 C222.07391135 144.26139496 224.58467835 154.03256847 224.6484375 166.625 C224.679375 168.11773437 224.679375 168.11773437 224.7109375 169.640625 C224.78419326 183.66910217 219.23763588 196.42082117 209.3984375 206.5 C197.72408625 216.85893139 183.08450427 222.19072178 167.546875 221.7109375 C151.6597046 220.64653651 139.16378909 214.19524907 128.3984375 202.5 C124.59104411 197.81976543 121.71644906 193.70122535 121.3984375 187.5 C120.90214844 187.93570313 120.40585938 188.37140625 119.89453125 188.8203125 C115.42024731 192.74273979 110.92279708 196.63544286 106.3984375 200.5 C100.68168543 198.8470901 97.62565596 194.8480559 93.77148438 190.58007812 C92.08990536 188.74553623 92.08990536 188.74553623 89.3984375 186.5 C84.78292228 186.91231109 82.38566795 190.2909455 79.3984375 193.5 C73.37449925 199.97126039 73.37449925 199.97126039 69.3984375 200.5 C67.50390625 199.3125 67.50390625 199.3125 65.5859375 197.5 C64.54759766 196.5409375 64.54759766 196.5409375 63.48828125 195.5625 C60.91316981 193.02108161 58.44127497 190.39290434 56.0390625 187.6875 C54.47106239 186.26555606 54.47106239 186.26555606 52.47558594 186.7578125 C49.01496125 187.99433096 46.85040136 190.86595962 44.3984375 193.5 C38.37449925 199.97126039 38.37449925 199.97126039 34.3984375 200.5 C32.50390625 199.3125 32.50390625 199.3125 30.5859375 197.5 C29.89371094 196.860625 29.20148438 196.22125 28.48828125 195.5625 C25.91316981 193.02108161 23.44127497 190.39290434 21.0390625 187.6875 C19.45898396 186.2750332 19.45898396 186.2750332 17.359375 186.65234375 C14.41573174 187.92479512 12.61413017 190.22599963 10.3984375 192.5 C9.7384375 192.5 9.0784375 192.5 8.3984375 192.5 C8.3984375 193.16 8.3984375 193.82 8.3984375 194.5 C7.7384375 194.5 7.0784375 194.5 6.3984375 194.5 C6.0684375 195.49 5.7384375 196.48 5.3984375 197.5 C3.6484375 199.3125 3.6484375 199.3125 1.3984375 200.5 C-1.2421875 199.57421875 -1.2421875 199.57421875 -3.6015625 198.5 C-3.62488835 172.83166256 -3.64254013 147.1633267 -3.65337467 121.49498081 C-3.6585383 109.57762359 -3.66558226 97.66027293 -3.67700195 85.74291992 C-3.68694676 75.35980679 -3.69341544 64.97669842 -3.69565099 54.59358066 C-3.69695845 49.09215674 -3.70004648 43.59074643 -3.70729256 38.08932686 C-3.71404957 32.91761015 -3.71618012 27.74591275 -3.71467018 22.57419205 C-3.71494665 20.67018085 -3.71695366 18.76616904 -3.72076797 16.86216164 C-3.72570026 14.27446234 -3.72456252 11.68683715 -3.72181702 9.09913635 C-3.72472986 8.33553238 -3.7276427 7.57192841 -3.73064381 6.78518492 C-3.71307854 0.7136247 -3.71307854 0.7136247 0 0 Z M32.96557617 10.78515625 C32.4213501 11.37167969 31.87712402 11.95820313 31.31640625 12.5625 C30.71376953 13.19414062 30.11113281 13.82578125 29.49023438 14.4765625 C28.22619383 15.81968661 26.96829984 17.16862342 25.71679688 18.5234375 C25.11029297 19.15507813 24.50378906 19.78671875 23.87890625 20.4375 C23.33129639 21.02402344 22.78368652 21.61054687 22.21948242 22.21484375 C19.79544707 23.9255452 18.3045999 23.87581698 15.3984375 23.5 C13.01171875 21.53125 13.01171875 21.53125 10.7109375 19 C9.30577173 17.4696682 7.87475307 15.96181346 6.3984375 14.5 C5.7384375 14.5 5.0784375 14.5 4.3984375 14.5 C4.3984375 70.93 4.3984375 127.36 4.3984375 185.5 C8.59531242 183.40156254 10.52503819 181.33022333 13.51953125 177.86328125 C15.3984375 176.5 15.3984375 176.5 17.6640625 176.3828125 C21.79699373 178.07141012 24.54789685 180.97112453 27.7109375 184.0625 C28.35611328 184.67802734 29.00128906 185.29355469 29.66601562 185.92773438 C31.25207446 187.4433017 32.82891719 188.96734228 34.3984375 190.5 C37.23091018 189.22320555 39.15994571 187.94763218 41.23828125 185.64453125 C41.74423828 185.10505859 42.25019531 184.56558594 42.77148438 184.00976562 C43.81852443 182.87383828 44.85757507 181.73049682 45.88867188 180.58007812 C49.71938573 176.53519476 49.71938573 176.53519476 52.9609375 176.3671875 C55.99025195 177.77504197 58.03232791 179.5190217 60.4609375 181.8125 C61.71583984 182.98232422 61.71583984 182.98232422 62.99609375 184.17578125 C65.15289706 186.26244461 67.28623131 188.36828152 69.3984375 190.5 C73.24502765 188.92923465 75.60114135 186.4676316 78.4609375 183.5 C81.05337705 180.81789712 83.29027512 178.57210825 86.3984375 176.5 C90.38570177 176.72428362 92.58076045 179.18810872 95.3984375 181.8125 C96.666875 182.98232422 96.666875 182.98232422 97.9609375 184.17578125 C100.13983191 186.25341294 102.28195199 188.35901813 104.3984375 190.5 C107.58403702 189.10366893 109.63787595 187.45442507 112.0234375 184.9375 C115.20399306 181.59722222 115.20399306 181.59722222 117.3984375 180.5 C117.7284375 171.59 118.0584375 162.68 118.3984375 153.5 C86.3884375 153.17 54.3784375 152.84 21.3984375 152.5 C21.0684375 150.85 20.7384375 149.2 20.3984375 147.5 C22.33381699 145.56462051 25.24938967 146.38220815 27.82455444 146.37876892 C28.74974884 146.38243973 29.67494324 146.38611053 30.62817383 146.38989258 C32.63735454 146.38934971 34.64653525 146.38876269 36.65571594 146.38813782 C37.72682428 146.38956598 38.79793262 146.39099415 39.90149879 146.39246559 C45.54701192 146.39596869 51.19242331 146.37020322 56.83789062 146.34960938 C64.03434569 146.32524842 71.23051141 146.30958266 78.42700195 146.32495117 C84.23150146 146.33658813 90.0352796 146.31927969 95.83966637 146.28250694 C98.05525855 146.27386925 100.2709194 146.27600558 102.48649025 146.289011 C105.58530615 146.3058399 108.68183637 146.28577735 111.78051758 146.25708008 C112.69963928 146.27087204 113.61876099 146.284664 114.56573486 146.2988739 C116.99181648 146.25520862 119.06444069 146.1641193 121.3984375 145.5 C124.57974951 141.99191921 124.57974951 141.99191921 125.3984375 137.5 C90.7484375 137.5 56.0984375 137.5 20.3984375 137.5 C20.3984375 131.5 20.3984375 131.5 21.3984375 130.5 C22.83539634 130.40747393 24.27688505 130.38422044 25.71681213 130.3888855 C26.64901077 130.3892128 27.58120941 130.3895401 28.54165649 130.38987732 C29.57277557 130.39511917 30.60389465 130.40036102 31.66625977 130.40576172 C33.90507494 130.40854952 36.14389026 130.41121926 38.38270569 130.41378784 C39.57693712 130.41683804 40.77116856 130.41988823 42.00158882 130.42303085 C48.30382454 130.43432869 54.60598628 130.41388075 60.90820312 130.3984375 C68.93836958 130.38014746 76.96814556 130.37064684 84.99829102 130.40039062 C91.47715103 130.42293256 97.95517347 130.41148901 104.43397331 130.37738419 C106.90305269 130.37061336 109.37219917 130.37629905 111.84121895 130.39474106 C115.30336667 130.41892611 118.76279965 130.39967716 122.22485352 130.37060547 C123.24180298 130.38799271 124.25875244 130.40537994 125.30651855 130.42329407 C132.89824535 130.29097525 136.22173293 127.83836068 141.3984375 122.5 C148.87559508 117.2659897 158.11747051 114.89371923 167.12939453 113.94799805 C167.93136261 113.86269333 168.73333069 113.77738861 169.55960083 113.6894989 C170.16641693 113.62696426 170.77323303 113.56442963 171.3984375 113.5 C171.53045017 103.56238524 171.66093581 93.62475163 171.78958893 83.68709278 C171.84940382 79.07027535 171.90970165 74.45346538 171.97119141 69.83666992 C172.3619666 41.66942744 172.3619666 41.66942744 172.3984375 13.5 C168.10351835 15.50976969 165.63692793 18.31107033 162.49609375 21.8203125 C160.3984375 23.5 160.3984375 23.5 158.0546875 24.15234375 C153.83851222 23.1169007 151.66860952 20.09614118 148.8359375 16.9375 C147.72178683 15.69601782 146.59592869 14.46491382 145.45703125 13.24609375 C144.96517334 12.69622803 144.47331543 12.1463623 143.96655273 11.57983398 C142.43937973 10.28533523 142.43937973 10.28533523 140.3984375 10.65820312 C138.21059348 11.57906325 137.00311519 12.54031372 135.33984375 14.22265625 C134.78876953 14.76083984 134.23769531 15.29902344 133.66992188 15.85351562 C132.53059226 16.99284524 131.39516234 18.13608793 130.26367188 19.28320312 C129.71130859 19.82009766 129.15894531 20.35699219 128.58984375 20.91015625 C128.09685791 21.40652588 127.60387207 21.90289551 127.09594727 22.41430664 C124.70538652 23.94326157 123.18330645 23.89070248 120.3984375 23.5 C118.57739258 22.21484375 118.57739258 22.21484375 116.91796875 20.4375 C116.00821289 19.49003906 116.00821289 19.49003906 115.08007812 18.5234375 C114.46326172 17.85570312 113.84644531 17.18796875 113.2109375 16.5 C111.97182666 15.1833653 110.72854258 13.87064155 109.48046875 12.5625 C108.93624268 11.97597656 108.3920166 11.38945312 107.83129883 10.78515625 C106.47108669 9.27743489 106.47108669 9.27743489 104.3984375 9.5 C101.89804409 11.84885442 99.57084295 14.31288846 97.24609375 16.8359375 C96.47136719 17.65320312 95.69664062 18.47046875 94.8984375 19.3125 C94.16625 20.10269531 93.4340625 20.89289062 92.6796875 21.70703125 C89.90789858 23.88554344 88.84407657 23.90538849 85.3984375 23.5 C83.5456543 22.21484375 83.5456543 22.21484375 81.84765625 20.4375 C81.23212891 19.80585937 80.61660156 19.17421875 79.98242188 18.5234375 C79.35658203 17.85570312 78.73074219 17.18796875 78.0859375 16.5 C77.44076172 15.83226562 76.79558594 15.16453125 76.13085938 14.4765625 C74.54154823 12.82838797 72.96505848 11.16970902 71.3984375 9.5 C68.5838734 10.77211511 66.63958607 12.04370317 64.55859375 14.3203125 C64.05263672 14.85527344 63.54667969 15.39023437 63.02539062 15.94140625 C61.98032132 17.0660626 60.94125377 18.19632525 59.90820312 19.33203125 C56.02145874 23.41138432 56.02145874 23.41138432 52.93017578 23.85107422 C49.8672828 23.42634518 49.00455685 22.67236264 46.91796875 20.4375 C46.31146484 19.80585937 45.70496094 19.17421875 45.08007812 18.5234375 C44.46326172 17.85570312 43.84644531 17.18796875 43.2109375 16.5 C41.97182666 15.1833653 40.72854258 13.87064155 39.48046875 12.5625 C38.66412964 11.68271484 38.66412964 11.68271484 37.83129883 10.78515625 C35.83084914 8.99092092 34.96602586 8.99092092 32.96557617 10.78515625 Z " fill="#384D90" transform="translate(43.6015625,13.5)"/>
<path d="M0 0 C1.07894531 0.78890625 1.07894531 0.78890625 2.1796875 1.59375 C7.57751657 5.91201326 10.78789071 10.93714371 14 17 C14.598125 18.093125 15.19625 19.18625 15.8125 20.3125 C20.047926 29.89793779 19.38734082 44.01907532 16.25 53.8125 C14.59552387 57.95155274 12.80865801 61.5081549 10 65 C9.37222656 65.78117187 8.74445313 66.56234375 8.09765625 67.3671875 C0.45939999 76.41496381 -8.13741606 82.25550236 -20 84 C-34.62552357 85.20919683 -46.12628074 83.18258534 -58 74 C-60.54288597 71.47564144 -62.76496316 68.79379605 -65 66 C-65.5259375 65.48824219 -66.051875 64.97648437 -66.59375 64.44921875 C-72.77010026 58.08414668 -74.17533112 45.68959941 -74.3125 37.3125 C-73.92099714 23.60990004 -69.31147348 13.50170007 -59.796875 3.55078125 C-43.15707054 -11.62490633 -18.23002853 -13.46608379 0 0 Z " fill="#C0FBA6" transform="translate(242,143)"/>
<path d="M0 0 C4.27317264 3.39950779 7.06261244 7.60529249 9.75 12.3125 C10.11351562 12.93898438 10.47703125 13.56546875 10.8515625 14.2109375 C13.75174992 20.99485417 14.07096371 30.11620516 12.75 37.3125 C8.79599358 46.83292585 2.37530224 54.45050412 -6.8125 59.125 C-8.5140625 59.7128125 -8.5140625 59.7128125 -10.25 60.3125 C-11.8896875 60.9003125 -11.8896875 60.9003125 -13.5625 61.5 C-22.62364043 63.49652247 -31.58812015 62.73747322 -39.6328125 57.87109375 C-47.66712691 52.00195898 -54.54439736 44.36337269 -56.25 34.3125 C-57.35490502 22.5452615 -55.39200283 13.39049347 -47.9453125 4.12890625 C-34.88754412 -9.86155987 -15.45840111 -10.43151504 0 0 Z " fill="#F6F7F9" transform="translate(153.25,62.6875)"/>
<path d="M0 0 C2.8145641 1.27211511 4.75885143 2.54370317 6.83984375 4.8203125 C7.5987793 5.62275391 7.5987793 5.62275391 8.37304688 6.44140625 C9.41811618 7.5660626 10.45718373 8.69632525 11.49023438 9.83203125 C14.45220022 13.02717689 14.45220022 13.02717689 18.46386719 14.35107422 C21.53308754 13.92620525 22.43299275 13.15425058 24.55078125 10.9375 C25.16630859 10.30585937 25.78183594 9.67421875 26.41601562 9.0234375 C27.04185547 8.35570312 27.66769531 7.68796875 28.3125 7 C28.95767578 6.33226562 29.60285156 5.66453125 30.26757812 4.9765625 C31.85688927 3.32838797 33.43337902 1.66970902 35 0 C37.8145641 1.27211511 39.75885143 2.54370317 41.83984375 4.8203125 C42.34580078 5.35527344 42.85175781 5.89023437 43.37304688 6.44140625 C44.41811618 7.5660626 45.45718373 8.69632525 46.49023438 9.83203125 C48.70444508 12.15596777 50.39367956 13.83225447 53.52734375 14.69921875 C57.12722494 13.68124287 59.16849047 11.36334073 61.625 8.6875 C62.10195312 8.18798828 62.57890625 7.68847656 63.0703125 7.17382812 C64.38907769 5.7909563 65.69501809 4.39588622 67 3 C67.99469507 1.99472307 68.99157585 0.99150428 70 0 C74.91814125 1.86346839 78.03819944 6.03696391 81.49023438 9.83203125 C83.78590927 12.24146895 85.35790539 13.86462427 88.66796875 14.5625 C91.48315368 13.88346042 92.46440795 13.02791104 94.375 10.875 C94.96667969 10.24335937 95.55835938 9.61171875 96.16796875 8.9609375 C96.77253906 8.31382813 97.37710938 7.66671875 98 7 C99.20714896 5.81056602 100.43547647 4.64210283 101.6875 3.5 C102.22761719 2.9946875 102.76773438 2.489375 103.32421875 1.96875 C105 1 105 1 106.92724609 1.26928711 C110.94283279 2.68491149 113.68056235 6.66959174 116.49023438 9.78320312 C118.75558244 12.18096035 120.3610266 13.84858901 123.62109375 14.62109375 C126.76269599 13.80087248 127.98587577 12.41595208 130.125 10 C132.1328125 7.75 132.1328125 7.75 134 6 C134.99 6 135.98 6 137 6 C137.74282815 10.53950535 137.88934935 12.74959001 135.171875 16.5703125 C129.15829851 22.92240157 129.15829851 22.92240157 125.609375 23.16015625 C121.00757062 21.11414442 118.05876204 17.16857903 114.72851562 13.484375 C114.17744141 12.89914063 113.62636719 12.31390625 113.05859375 11.7109375 C112.56673584 11.16743652 112.07487793 10.62393555 111.56811523 10.06396484 C110.03845722 8.78959399 110.03845722 8.78959399 108 9.14453125 C105.72282807 10.11855596 104.59432082 11.14251773 102.94140625 12.9765625 C102.39033203 13.564375 101.83925781 14.1521875 101.27148438 14.7578125 C100.13003784 16.00492437 98.99461743 17.25757805 97.86523438 18.515625 C93.71736967 22.91032879 93.71736967 22.91032879 90.5 23.3125 C86.06495113 20.98409935 83.05317178 17.16239461 79.72851562 13.484375 C78.9019043 12.60652344 78.9019043 12.60652344 78.05859375 11.7109375 C77.56673584 11.16743652 77.07487793 10.62393555 76.56811523 10.06396484 C75.03845722 8.78959399 75.03845722 8.78959399 73 9.14453125 C70.72282807 10.11855596 69.59432082 11.14251773 67.94140625 12.9765625 C67.11479492 13.85828125 67.11479492 13.85828125 66.27148438 14.7578125 C65.13003784 16.00492437 63.99461743 17.25757805 62.86523438 18.515625 C58.71736967 22.91032879 58.71736967 22.91032879 55.5 23.3125 C51.06495113 20.98409935 48.05317178 17.16239461 44.72851562 13.484375 C43.9019043 12.60652344 43.9019043 12.60652344 43.05859375 11.7109375 C42.56673584 11.16743652 42.07487793 10.62393555 41.56811523 10.06396484 C40.03194475 8.77838061 40.03194475 8.77838061 37.96118164 9.19433594 C34.96519109 10.42510512 33.21652025 12.54359913 31 14.875 C24.74255765 21.41860587 24.74255765 21.41860587 22 23 C18.89164516 22.9937205 17.856951 21.87186606 15.52734375 19.78515625 C14.67269531 18.88667969 13.81804687 17.98820312 12.9375 17.0625 C10.34346631 14.35144223 8.12668719 12.08445813 5 10 C5 9.34 5 8.68 5 8 C1.96955994 9.64509603 -0.23161503 11.23161503 -2.6875 13.6875 C-3.450625 14.450625 -4.21375 15.21375 -5 16 C-5.66 16 -6.32 16 -7 16 C-7.66 17.32 -8.32 18.64 -9 20 C-9.66 20 -10.32 20 -11 20 C-11 20.66 -11 21.32 -11 22 C-13.0625 22.9375 -13.0625 22.9375 -16 23 C-17.81811523 21.47485352 -17.81811523 21.47485352 -19.68359375 19.50390625 C-20.3067749 18.85365479 -20.92995605 18.20340332 -21.57202148 17.53344727 C-22.04325439 17.02740967 -22.5144873 16.52137207 -23 16 C-23.00146656 16.80029507 -23.00293312 17.60059013 -23.00444412 18.42513657 C-23.04147704 37.88765647 -23.10044491 57.34999636 -23.18390274 76.81237411 C-23.22373183 86.22420289 -23.25610462 95.63594758 -23.27099609 105.04785156 C-23.2839926 113.25016562 -23.31090586 121.45229497 -23.35461307 129.65450501 C-23.3772731 133.99856323 -23.39290797 138.34239325 -23.39188385 142.68651581 C-23.3911399 146.7742039 -23.40898305 150.86138669 -23.44116783 154.94894409 C-23.44969623 156.45014391 -23.45139686 157.95140021 -23.44580269 159.45261383 C-23.43918663 161.50063839 -23.45940196 163.54869748 -23.48101807 165.59661865 C-23.48654882 167.31668436 -23.48654882 167.31668436 -23.49219131 169.07149887 C-24.10824006 172.62421369 -25.16797556 173.83488514 -28 176 C-28.66 176 -29.32 176 -30 176 C-30 119.57 -30 63.14 -30 5 C-25.83576625 7.08211688 -23.88080129 9.12623519 -20.87890625 12.5390625 C-18.39322948 14.47179246 -17.09427643 14.3358804 -14 14 C-12.07019474 12.75308301 -12.07019474 12.75308301 -10.44921875 10.9375 C-9.52592773 9.99003906 -9.52592773 9.99003906 -8.58398438 9.0234375 C-7.95814453 8.35570312 -7.33230469 7.68796875 -6.6875 7 C-6.04232422 6.33226562 -5.39714844 5.66453125 -4.73242188 4.9765625 C-3.14311073 3.32838797 -1.56662098 1.66970902 0 0 Z " fill="#EFF2F7" transform="translate(78,23)"/>
<path d="M0 0 C10.67532389 6.99051749 17.95352947 15.86058841 22 28 C23.05332537 38.93325064 23.20227675 49.57384852 17 59 C16.54238281 59.721875 16.08476562 60.44375 15.61328125 61.1875 C9.55753577 69.94759209 0.76451575 77.3269828 -9.828125 79.609375 C-22.49689647 81.16956853 -33.15505063 80.7611347 -43.75 72.98046875 C-51.73750119 66.19346997 -60.17122288 56.0182382 -61.17700195 45.07397461 C-61.56986364 31.15164525 -60.72338894 20.73669111 -51 10 C-37.33372938 -3.84375466 -18.04248291 -9.14938409 0 0 Z M-47 16 C-53.94732031 24.59273828 -55.08051803 34.21937696 -54 45 C-51.4995086 55.68662396 -44.51091627 63.735817 -35.47265625 69.625 C-27.40631078 74.11055072 -18.27380065 73.93677473 -9.4375 71.9375 C-0.16951025 69.13615846 5.78181021 62.88279735 11 55 C12.175625 53.4840625 12.175625 53.4840625 13.375 51.9375 C16.92840959 45.52655686 15.77524056 36.18256651 14.109375 29.34375 C10.93443243 19.77420478 6.70745338 12.56571265 -2.41015625 7.71875 C-18.80254233 0.25554983 -34.55877853 2.92142087 -47 16 Z " fill="#283E8C" transform="translate(151,52)"/>
<path d="M0 0 C5.33282274 2.66641137 5.33282274 2.66641137 7 5 C7.36469936 7.88798428 7.36469936 7.88798428 7.34971619 11.48399353 C7.35101817 12.14527002 7.35232016 12.80654652 7.3536616 13.48786169 C7.35425936 15.70825236 7.33323034 17.9279093 7.31225586 20.14819336 C7.30809639 21.73818185 7.30520768 23.3281741 7.30349731 24.91816711 C7.29469329 29.24058301 7.26657958 33.56267413 7.23397899 37.88496852 C7.20846915 41.49093032 7.19220379 45.09690951 7.17591387 48.70292288 C7.13729734 57.2088869 7.08297685 65.71465225 7.01879883 74.22045898 C6.95280886 83.00057652 6.91233823 91.7805476 6.88460058 100.56086248 C6.85994989 108.09479211 6.81991144 115.62853136 6.76739794 123.16231829 C6.73615001 127.66391002 6.71068372 132.16534488 6.69981194 136.66703606 C6.68888183 140.90009481 6.65873548 145.13258638 6.61371231 149.36541557 C6.60038653 150.91981173 6.59385345 152.47428301 6.59457207 154.02873611 C6.59447213 156.14946537 6.569938 158.26854892 6.53916931 160.38902283 C6.53158568 161.57608291 6.52400206 162.76314299 6.51618862 163.98617458 C5.89812974 167.594781 4.88423393 168.81153427 2 171 C1.34 171 0.68 171 0 171 C0 114.57 0 58.14 0 0 Z " fill="#F7F9FA" transform="translate(48,28)"/>
<path d="M0 0 C1.9375 0.0625 1.9375 0.0625 4 1 C4.28875 1.94875 4.5775 2.8975 4.875 3.875 C5.69911288 7.26179786 5.69911288 7.26179786 8.9375 8.5625 C9.948125 9.036875 10.95875 9.51125 12 10 C15.24708889 13.89650666 15.29216602 17.03317768 15 22 C13.35 22 11.7 22 10 22 C8.68 19.69 7.36 17.38 6 15 C4.52093108 14.97310784 3.04172517 14.95365379 1.5625 14.9375 C0.73878906 14.92589844 -0.08492187 14.91429688 -0.93359375 14.90234375 C-2.99163938 14.76732652 -2.99163938 14.76732652 -4 16 C-4.16666667 19 -4.16666667 19 -4 22 C-2.32432007 23.67567993 -0.1097941 23.20399083 2.1875 23.3125 C7.35730341 23.7293112 10.09884055 24.612151 14 28 C15.98843702 31.97687403 15.6720314 36.68779852 15 41 C12.73134937 44.30964538 9.77829842 45.74056719 6 47 C4.77479736 50.00847418 4.77479736 50.00847418 4 53 C2.33388095 53.042721 0.66617115 53.04063832 -1 53 C-2 52 -2 52 -2.0625 49.4375 C-2.041875 48.633125 -2.02125 47.82875 -2 47 C-2.9075 46.79375 -3.815 46.5875 -4.75 46.375 C-8.86694991 44.6332135 -10.01739304 42.96521393 -12 39 C-12.3125 35.6875 -12.3125 35.6875 -12 33 C-11 32 -11 32 -8.4375 31.9375 C-7.2309375 31.9684375 -7.2309375 31.9684375 -6 32 C-5.34 33.98 -4.68 35.96 -4 38 C-0.37 38 3.26 38 7 38 C7 36.35 7 34.7 7 33 C5.19609607 31.19609607 2.19291807 31.61052798 -0.25 31.375 C-7.68278595 30.25722648 -7.68278595 30.25722648 -10.3125 26.9375 C-12.557537 22.77681367 -13.0517579 18.59935401 -12 14 C-10.59679164 11.35379212 -9.28331859 10.07574418 -7 8 C-6.278125 7.835 -5.55625 7.67 -4.8125 7.5 C-4.214375 7.335 -3.61625 7.17 -3 7 C-1.76242123 4.03739474 -1.76242123 4.03739474 -1 1 C-0.67 0.67 -0.34 0.34 0 0 Z " fill="#2A408A" transform="translate(130,63)"/>
<path d="M0 0 C0.71623535 0.26240479 1.4324707 0.52480957 2.17041016 0.79516602 C2.3981326 3.60408838 2.52202847 5.2584903 0.95124817 7.65597534 C0.38008774 8.23412994 -0.19107269 8.81228455 -0.77954102 9.40795898 C-1.42408737 10.07149384 -2.06863373 10.73502869 -2.73271179 11.41867065 C-3.43886124 12.117836 -4.14501068 12.81700134 -4.87255859 13.53735352 C-5.59316971 14.26511993 -6.31378082 14.99288635 -7.05622864 15.7427063 C-8.58259027 17.27684966 -10.11538373 18.80461662 -11.65405273 20.32641602 C-14.01018583 22.66331835 -16.3355261 25.0280572 -18.65966797 27.39672852 C-20.1455263 28.88287717 -21.63310065 30.36731251 -23.12255859 31.84985352 C-23.81858688 32.56116425 -24.51461517 33.27247498 -25.23173523 34.00534058 C-25.89204239 34.64996246 -26.55234955 35.29458435 -27.23266602 35.95874023 C-27.80780441 36.53212128 -28.38294281 37.10550232 -28.97550964 37.69625854 C-30.82958984 38.79516602 -30.82958984 38.79516602 -33.41889954 38.6086731 C-36.74166967 37.48737725 -37.93229502 35.70258077 -40.01708984 32.92016602 C-40.69126953 32.03586914 -41.36544922 31.15157227 -42.06005859 30.24047852 C-45.85722057 24.99318624 -45.85722057 24.99318624 -45.45458984 22.10766602 C-45.24833984 21.34454102 -45.04208984 20.58141602 -44.82958984 19.79516602 C-42.56787109 19.51391602 -42.56787109 19.51391602 -39.82958984 19.79516602 C-37.81005859 21.76391602 -37.81005859 21.76391602 -36.01708984 24.29516602 C-35.11023438 25.54813477 -35.11023438 25.54813477 -34.18505859 26.82641602 C-33.73775391 27.47610352 -33.29044922 28.12579102 -32.82958984 28.79516602 C-28.36320718 25.16544377 -24.28337118 21.28396507 -20.29052734 17.14282227 C-19.79820618 16.63552582 -19.30588501 16.12822937 -18.79864502 15.6055603 C-16.74011593 13.48399979 -14.6827883 11.36205582 -12.64892578 9.21679688 C-11.14725393 7.63662639 -9.62732934 6.07613182 -8.10302734 4.51782227 C-7.21019043 3.58719971 -6.31735352 2.65657715 -5.39746094 1.69775391 C-2.82958984 -0.20483398 -2.82958984 -0.20483398 0 0 Z " fill="#274085" transform="translate(235.82958984375,161.204833984375)"/>
<path d="M0 0 C0.99 0.99 1.98 1.98 3 3 C2.67 3.33 2.34 3.66 2 4 C1.89108027 5.96127346 1.85309836 7.92649936 1.84178162 9.89076233 C1.8319928 11.17108841 1.82220398 12.45141449 1.81211853 13.77053833 C1.80621356 15.20257531 1.80040317 16.63461268 1.79467773 18.06665039 C1.78510466 19.56431858 1.77509493 21.06198404 1.76467896 22.55964661 C1.73756188 26.63795229 1.71658928 30.71626962 1.69667697 34.79461598 C1.67485922 39.05209956 1.64745 43.30954693 1.62062073 47.56700134 C1.57063671 55.63470562 1.52571914 63.70242993 1.48259836 71.77017349 C1.43327467 80.95263349 1.37833855 90.13505719 1.32291877 99.31748211 C1.20901113 118.21162106 1.10219131 137.10579424 1 156 C0.67 156 0.34 156 0 156 C0 104.52 0 53.04 0 0 Z " fill="#8A99D1" transform="translate(54,38)"/>
<path d="M0 0 C4.24648391 0.08861042 4.24648391 0.08861042 6.5625 2.1875 C7.5625 4.375 7.5625 4.375 8.5625 7.375 C10.56266466 8.58382096 10.56266466 8.58382096 12.5625 9.375 C11.2425 9.375 9.9225 9.375 8.5625 9.375 C8.5625 10.035 8.5625 10.695 8.5625 11.375 C6.43686897 11.26123383 4.3119739 11.13364369 2.1875 11 C1.00414062 10.93039063 -0.17921875 10.86078125 -1.3984375 10.7890625 C-4.4375 10.375 -4.4375 10.375 -6.4375 8.375 C-6.6875 5.375 -6.6875 5.375 -6.4375 2.375 C-4.03403621 -0.02846379 -3.29849805 0.05416253 0 0 Z " fill="#DDE1EC" transform="translate(131.4375,76.625)"/>
<path d="M0 0 C0 5.52294244 -5.32948066 9.1677672 -9 13 C-9.50273437 13.52996582 -10.00546875 14.05993164 -10.5234375 14.60595703 C-12.08820637 16.24808854 -13.66629598 17.87613672 -15.25 19.5 C-15.74467773 20.01618896 -16.23935547 20.53237793 -16.74902344 21.06420898 C-19.62575224 23.96653661 -22.07841594 25.79776255 -26 27 C-20.89551178 20.81865131 -15.31705058 15.20177122 -9.625 9.5625 C-8.69816406 8.64017578 -7.77132812 7.71785156 -6.81640625 6.76757812 C-4.54654154 4.50941375 -2.27436462 2.25363058 0 0 Z " fill="#ABE0A7" transform="translate(232,172)"/>
<path d="M0 0 C3.82524236 1.450954 5.19090966 3.38181932 7 7 C7 7.66 7 8.32 7 9 C6.01 9.495 6.01 9.495 5 10 C4.27840576 11.64363134 3.60648579 13.31050386 3 15 C0.47368858 11.87218586 -1.42373366 8.70422589 -3 5 C-2 2 -2 2 0 0 Z " fill="#284087" transform="translate(255,149)"/>
<path d="M0 0 C0.928125 0.0825 1.85625 0.165 2.8125 0.25 C3.1425 1.24 3.4725 2.23 3.8125 3.25 C4.4725 3.58 5.1325 3.91 5.8125 4.25 C4.8225 5.735 4.8225 5.735 3.8125 7.25 C4.4725 7.58 5.1325 7.91 5.8125 8.25 C3.1725 7.92 0.5325 7.59 -2.1875 7.25 C-2.1875 6.59 -2.1875 5.93 -2.1875 5.25 C-3.5075 4.92 -4.8275 4.59 -6.1875 4.25 C-4.36434338 1.00883268 -3.82500054 0.30000004 0 0 Z " fill="#263E86" transform="translate(226.1875,128.75)"/>
<path d="M0 0 C2.73055792 2.73055792 2.94529171 4.76371037 3.11352539 8.56542969 C3.10567017 9.97937012 3.10567017 9.97937012 3.09765625 11.421875 C3.09443359 12.44667969 3.09121094 13.47148437 3.08789062 14.52734375 C3.07951172 15.59082031 3.07113281 16.65429688 3.0625 17.75 C3.05798828 18.82894531 3.05347656 19.90789062 3.04882812 21.01953125 C3.03705727 23.67974383 3.02061399 26.33984365 3 29 C2.67 29 2.34 29 2 29 C1.97494385 28.44014404 1.9498877 27.88028809 1.92407227 27.3034668 C1.80796255 24.76458695 1.6853042 22.22606447 1.5625 19.6875 C1.52318359 18.80642578 1.48386719 17.92535156 1.44335938 17.01757812 C1.40146484 16.17001953 1.35957031 15.32246094 1.31640625 14.44921875 C1.26141968 13.27879028 1.26141968 13.27879028 1.20532227 12.0847168 C1.05874737 9.80670899 1.05874737 9.80670899 0 7 C-0.03954234 4.66700175 -0.04401732 2.33291811 0 0 Z " fill="#9BA7B2" transform="translate(265,163)"/>
<path d="M0 0 C0.66 0.33 1.32 0.66 2 1 C-1.3 4.3 -4.6 7.6 -8 11 C-8.66 10.67 -9.32 10.34 -10 10 C-8.90033225 8.70450101 -7.79508199 7.41373929 -6.6875 6.125 C-6.07261719 5.40570313 -5.45773438 4.68640625 -4.82421875 3.9453125 C-3 2 -3 2 0 0 Z " fill="#D5DCE9" transform="translate(113,60)"/>
<path d="M0 0 C0.99 0.33 1.98 0.66 3 1 C-1.26041226 4.76354036 -5.51848911 8.49881962 -10 12 C-10.66 11.67 -11.32 11.34 -12 11 C-8.04 7.37 -4.08 3.74 0 0 Z " fill="#D9DFEC" transform="translate(183,24)"/>
<path d="M0 0 C0 4.35251187 -2.06165511 5.92809398 -5 9 C-7.171875 9.6796875 -7.171875 9.6796875 -9 10 C-8.06409496 8.8944811 -7.12620142 7.79064547 -6.1875 6.6875 C-5.66542969 6.07261719 -5.14335937 5.45773438 -4.60546875 4.82421875 C-3.12827531 3.14575321 -1.59960869 1.56117966 0 0 Z " fill="#A2D5A7" transform="translate(232,172)"/>
<path d="M0 0 C0.99 0.33 1.98 0.66 3 1 C0.14723863 3.93200474 -2.65079784 6.64315404 -6 9 C-6.66 8.67 -7.32 8.34 -8 8 C-7.50628906 7.59007812 -7.01257813 7.18015625 -6.50390625 6.7578125 C-5.86324219 6.21898437 -5.22257813 5.68015625 -4.5625 5.125 C-3.92441406 4.59132813 -3.28632813 4.05765625 -2.62890625 3.5078125 C-0.89194996 2.0777243 -0.89194996 2.0777243 0 0 Z " fill="#CAD2E4" transform="translate(148,23)"/>
<path d="M0 0 C0.99 0.33 1.98 0.66 3 1 C1.68 2.32 0.36 3.64 -1 5 C-1.99 4.67 -2.98 4.34 -4 4 C-2.68 2.68 -1.36 1.36 0 0 Z " fill="#E5EAF2" transform="translate(139,32)"/>
</svg>
