<?xml version="1.0" standalone="no"?>
<!DOCTYPE svg PUBLIC "-//W3C//DTD SVG 20010904//EN"
 "http://www.w3.org/TR/2001/REC-SVG-20010904/DTD/svg10.dtd">
<svg version="1.0" xmlns="http://www.w3.org/2000/svg"
 width="308.000000pt" height="243.000000pt" viewBox="0 0 308.000000 243.000000"
 preserveAspectRatio="xMidYMid meet">

<g transform="translate(0.000000,243.000000) scale(0.100000,-0.100000)"
fill="#000000" stroke="none">
<path d="M417 2273 c-4 -3 -7 -444 -7 -978 0 -835 2 -974 14 -985 15 -12 22
-7 146 107 19 18 39 33 44 33 5 0 44 -34 87 -75 43 -41 82 -75 86 -75 5 1 44
34 88 75 44 41 85 75 90 75 6 -1 45 -34 88 -75 43 -41 82 -75 86 -75 5 0 44
34 87 75 44 41 83 74 87 75 5 0 45 -34 90 -75 44 -41 84 -75 88 -75 5 0 40 30
79 66 39 37 72 65 74 63 1 -2 19 -33 39 -69 76 -138 226 -241 384 -262 267
-36 511 122 590 381 21 70 17 230 -8 304 -56 167 -188 299 -351 348 l-68 21 0
553 c0 665 8 634 -134 497 l-77 -73 -82 75 c-45 42 -88 76 -95 76 -7 0 -49
-34 -93 -76 l-80 -76 -78 76 c-43 42 -87 76 -96 76 -10 0 -53 -34 -97 -76
l-79 -76 -57 54 c-96 90 -105 98 -120 98 -8 0 -50 -34 -94 -75 l-79 -76 -82
75 c-45 42 -88 76 -96 76 -7 0 -50 -34 -95 -75 l-83 -74 -79 74 c-74 69 -101
85 -117 68z m454 -148 c42 -41 85 -75 95 -75 10 0 53 34 96 77 l77 76 81 -76
c45 -43 89 -77 98 -77 9 0 51 34 94 77 l76 76 84 -76 c45 -43 89 -77 96 -77 8
0 50 34 95 75 l80 75 78 -75 c42 -41 85 -75 95 -75 10 0 44 26 76 57 32 31 59
55 60 52 2 -2 2 -228 0 -501 l-4 -498 -45 0 c-91 0 -222 -52 -305 -121 l-47
-39 -550 0 c-486 0 -551 -2 -565 -16 -19 -18 -19 -20 -6 -45 10 -18 27 -19
535 -19 l523 0 -21 -40 -22 -40 -502 0 c-492 0 -503 0 -513 -20 -8 -14 -8 -26
0 -40 10 -19 23 -20 498 -22 427 -3 486 -5 483 -18 -3 -8 -5 -66 -5 -128 l-1
-113 -52 -50 c-28 -27 -55 -49 -60 -49 -4 1 -39 30 -78 66 -38 36 -78 69 -87
75 -14 7 -34 -6 -100 -66 -46 -41 -86 -75 -89 -75 -3 0 -38 30 -78 67 -41 38
-79 71 -87 76 -9 5 -41 -18 -98 -68 -56 -50 -90 -74 -98 -69 -7 5 -41 35 -76
69 -35 33 -70 64 -78 68 -10 6 -33 -9 -78 -52 -34 -34 -66 -61 -69 -61 -4 0
-7 389 -7 865 0 476 3 865 7 865 3 0 32 -25 64 -55 32 -30 65 -55 75 -55 9 0
51 34 93 75 42 41 78 75 80 75 3 0 39 -34 82 -75z m1354 -1045 c239 -39 416
-289 375 -531 -17 -98 -67 -193 -138 -261 -95 -91 -188 -128 -323 -128 -182 0
-331 95 -415 265 -39 78 -39 80 -39 194 0 113 1 118 38 195 27 57 55 96 100
140 114 112 242 152 402 126z"/>
<path d="M1195 1937 c-143 -48 -239 -146 -284 -291 -25 -81 -27 -141 -6 -221
43 -165 176 -286 349 -316 243 -42 486 168 486 421 0 114 -65 252 -152 323
-79 65 -150 91 -258 94 -59 2 -110 -2 -135 -10z m262 -92 c123 -55 194 -162
201 -299 6 -114 -20 -180 -103 -263 -52 -51 -72 -64 -129 -82 -82 -25 -134
-26 -206 -5 -96 28 -169 90 -217 184 -25 49 -28 65 -28 150 0 84 3 101 28 148
53 101 140 171 239 192 62 13 155 2 215 -25z"/>
<path d="M1296 1784 c-9 -8 -16 -24 -16 -35 0 -13 -10 -24 -30 -30 -59 -21
-87 -107 -55 -168 16 -32 77 -61 128 -61 17 0 37 -4 43 -8 39 -26 11 -82 -41
-82 -49 0 -64 9 -80 47 -11 27 -19 34 -37 31 -52 -7 -24 -108 37 -134 25 -10
34 -21 37 -41 3 -24 8 -28 33 -28 25 0 30 4 33 28 3 20 12 31 36 41 44 18 66
52 66 98 0 77 -41 118 -120 118 -57 0 -80 14 -80 50 0 33 23 50 65 50 39 0 62
-16 74 -51 8 -24 15 -30 33 -27 20 3 23 9 22 45 -1 48 -16 71 -61 90 -25 10
-33 20 -33 38 0 33 -33 51 -54 29z"/>
<path d="M2184 669 l-152 -151 -38 51 c-31 42 -44 51 -64 49 -16 -2 -26 -10
-28 -23 -3 -25 96 -158 122 -163 26 -5 356 324 356 354 0 19 -17 34 -38 34 -3
0 -74 -68 -158 -151z"/>
</g>
</svg>
